<?xml version="1.0" encoding="UTF-8"?>
<svg width="518px" height="157px" viewBox="0 0 518 157" version="1.1" xmlns="http://www.w3.org/2000/svg" xmlns:xlink="http://www.w3.org/1999/xlink">
    <!-- Generator: Sketch 52 (66869) - http://www.bohemiancoding.com/sketch -->
    <title>Group 37</title>
    <desc>Created with Sketch.</desc>
    <defs>
        <polygon id="path-1" points="0.5934 0.7859 57.838 0.7859 57.838 89.0479 0.5934 89.0479"></polygon>
        <polygon id="path-3" points="0.5483 0.0992 51.0243 0.0992 51.0243 54 0.5483 54"></polygon>
        <polygon id="path-5" points="0.5086 0.099 43.838 0.099 43.838 54 0.5086 54"></polygon>
        <polygon id="path-7" points="0 157.845 517.838 157.845 517.838 1 0 1"></polygon>
    </defs>
    <g id="Page-1" stroke="none" stroke-width="1" fill="none" fill-rule="evenodd">
        <g id="Group-37" transform="translate(0.000000, -1.000000)">
            <path d="M74.4465,46.1402 L74.7165,46.1402 C76.3475,46.1402 77.6705,47.4632 77.6705,49.0952 L77.6705,77.8642 C77.6705,78.6992 77.3305,79.5102 76.7065,80.0642 C73.0315,83.3292 68.6665,85.8482 63.6115,87.6242 C58.1055,89.5582 52.2835,90.5232 46.1485,90.5232 C37.4045,90.5232 29.5245,88.5912 22.5075,84.7232 C15.4875,80.8572 9.9805,75.5182 5.9885,68.7102 C1.9955,61.9022 0.0005,54.2532 0.0005,45.7612 C0.0005,37.2722 1.9955,29.6222 5.9885,22.8142 C9.9805,16.0052 15.4875,10.6672 22.5075,6.8002 C29.5245,2.9342 37.4475,1.0002 46.2745,1.0002 C52.7465,1.0002 58.6935,2.0312 64.1155,4.0892 C68.5275,5.7662 72.4235,8.0672 75.8055,10.9952 C77.0765,12.0952 77.1675,14.0422 76.0155,15.2652 C74.9335,16.4152 73.1425,16.5022 71.9465,15.4722 C68.7905,12.7542 65.3395,10.7252 61.5935,9.3852 C57.0115,7.7452 51.9485,6.9262 46.4005,6.9262 C38.8345,6.9262 32.0045,8.6092 25.9105,11.9712 C19.8155,15.3322 15.0455,19.9772 11.5995,25.9032 C8.1525,31.8292 6.4305,38.4482 6.4305,45.7612 C6.4305,52.9922 8.1745,59.5682 11.6635,65.4952 C15.1505,71.4212 19.9215,76.0862 25.9735,79.4912 C32.0265,82.8942 38.8345,84.5972 46.4005,84.5972 C55.9125,84.5972 63.8915,82.2062 70.3405,77.4212 C71.0775,76.8732 71.4925,75.9892 71.4925,75.0702 L71.4925,49.0952 C71.4925,47.4632 72.8145,46.1402 74.4465,46.1402" id="Fill-1" fill="#FFFFFF"></path>
            <path d="M108.8142,1.6309 L109.4442,1.6309 C111.0462,1.6309 112.3442,2.9289 112.3442,4.5309 L112.3442,81.1919 C112.3442,82.7939 113.6432,84.0919 115.2452,84.0919 L160.2582,84.0919 C161.8592,84.0919 163.1582,85.3909 163.1582,86.9929 C163.1582,88.5939 161.8592,89.8929 160.2582,89.8929 L108.8142,89.8929 C107.2122,89.8929 105.9142,88.5939 105.9142,86.9929 L105.9142,4.5309 C105.9142,2.9289 107.2122,1.6309 108.8142,1.6309" id="Fill-3" fill="#FFFFFF"></path>
            <path d="M335.7043,79.8687 C340.1183,76.8867 342.3243,72.2837 342.3243,66.0617 C342.3243,59.8417 340.1183,55.2627 335.7043,52.3187 C331.2933,49.3767 324.7993,47.9047 316.2253,47.9047 L286.8613,47.9047 C284.9023,47.9047 283.3153,49.4927 283.3153,51.4507 L283.3153,80.7987 C283.3153,82.7567 284.9023,84.3447 286.8613,84.3447 L316.2253,84.3447 C324.7993,84.3447 331.2933,82.8537 335.7043,79.8687 M283.3153,10.7247 L283.3153,38.8117 C283.3153,40.7697 284.9023,42.3577 286.8613,42.3577 L313.4513,42.3577 C321.1833,42.3577 327.1303,40.8657 331.2933,37.8817 C335.4533,34.8977 337.5333,30.5057 337.5333,24.7047 C337.5333,18.9897 335.4533,14.6397 331.2933,11.6557 C327.1303,8.6717 321.1833,7.1787 313.4513,7.1787 L286.8613,7.1787 C284.9023,7.1787 283.3153,8.7657 283.3153,10.7247 M343.7733,51.8137 C347.0953,55.5967 348.7543,60.5137 348.7543,66.5667 C348.7543,74.0497 346.0233,79.8057 340.5603,83.8397 C335.0943,87.8747 326.9843,89.8927 316.2253,89.8927 L280.4313,89.8927 C278.4733,89.8927 276.8853,88.3057 276.8853,86.3467 L276.8853,5.1777 C276.8853,3.2187 278.4733,1.6307 280.4313,1.6307 L313.7023,1.6307 C323.2853,1.6307 330.7453,3.5847 336.0843,7.4937 C341.4213,11.4027 344.0893,16.9727 344.0893,24.2007 C344.0893,29.2437 342.7663,33.4897 340.1183,36.9357 C338.9973,38.3957 337.7073,39.6807 336.2473,40.7937 C334.1593,42.3847 334.5723,45.6337 336.9443,46.7577 C339.6713,48.0497 341.9473,49.7347 343.7733,51.8137" id="Fill-5" fill="#FFFFFF"></path>
            <g id="Group-9" transform="translate(460.000000, 0.845000)">
                <mask id="mask-2" fill="white">
                    <use xlink:href="#path-1"></use>
                </mask>
                <g id="Clip-8"></g>
                <path d="M3.4934,0.7859 L4.1234,0.7859 C5.7254,0.7859 7.0234,2.0839 7.0234,3.6859 L7.0234,80.3469 C7.0234,81.9489 8.3224,83.2469 9.9244,83.2469 L54.9374,83.2469 C56.5404,83.2469 57.8384,84.5459 57.8384,86.1479 C57.8384,87.7489 56.5404,89.0479 54.9374,89.0479 L3.4934,89.0479 C1.8914,89.0479 0.5934,87.7489 0.5934,86.1479 L0.5934,3.6859 C0.5934,2.0839 1.8914,0.7859 3.4934,0.7859" id="Fill-7" fill="#FFFFFF" mask="url(#mask-2)"></path>
            </g>
            <path d="M221.4587,67.9141 C221.0037,68.6941 220.8567,69.4321 220.7497,69.9701 C220.6587,70.4241 220.6247,70.5401 220.5577,70.6221 C220.1467,71.1271 219.3797,71.8601 218.5937,72.3591 C218.3067,72.5411 218.0867,72.6491 217.9297,72.7121 C217.6577,72.2621 217.1617,71.2881 216.5057,69.3401 C216.2547,68.5971 215.9117,67.8371 215.5797,67.1021 L215.5597,67.0591 C214.9267,65.6651 214.2097,64.0851 214.4807,63.2481 L214.6077,62.8611 C215.2097,61.0221 215.8337,59.1221 214.6997,56.4061 C214.3367,55.5371 213.7727,54.9151 213.3127,54.4081 C212.9417,54.0021 212.8547,53.8871 212.8467,53.8871 C212.8457,53.8871 212.8457,53.8871 212.8467,53.8901 C212.8097,53.7381 212.8107,53.4851 212.8127,53.2201 C212.8197,52.2541 212.8317,50.6381 211.2387,49.1471 C210.1977,48.1731 208.9877,47.7001 207.5387,47.7001 C206.5627,47.7001 205.6517,47.9241 204.9607,48.0941 L204.8947,48.1101 C204.5057,48.2071 204.1397,48.2971 203.8157,48.3331 C201.7287,48.5941 199.8537,47.8051 198.6847,46.1791 C197.4557,44.4701 197.2807,42.1621 198.2287,40.1581 C198.6977,39.1641 199.4417,38.3271 200.3837,37.2671 L200.9167,36.6631 C201.2847,36.2371 201.6907,35.6591 202.0497,35.1491 C203.1707,33.5541 203.4427,33.3031 203.4857,33.2741 C204.0827,32.9391 205.9397,32.8741 206.9377,32.8391 L207.0717,32.8351 C207.4597,32.8191 207.8327,32.8041 208.1757,32.7811 C208.1807,32.8481 208.1877,32.9141 208.1987,32.9781 C208.3177,33.7481 208.7997,34.4281 209.4897,34.7991 C209.7847,34.9571 210.2087,35.2411 210.6587,35.5391 C212.0717,36.4831 213.6757,37.5531 215.3097,37.6571 C216.9787,37.7461 217.9127,36.7901 218.2487,36.4421 C218.3457,36.3661 218.4377,36.2781 218.5247,36.1821 L218.8497,36.2711 C221.1477,36.8901 221.6777,37.1651 221.7837,37.2701 C222.4117,37.9351 222.9587,39.3511 223.4487,40.6151 C223.7277,41.3411 223.9627,41.9411 224.2317,42.5161 C224.3317,42.7261 224.4297,42.9441 224.5287,43.1681 L224.5757,43.2721 C225.4067,45.1261 226.3487,47.2251 228.4347,48.5891 C229.1247,49.0401 229.9027,49.2621 230.5617,49.3981 C230.2187,49.7481 229.8367,50.1031 229.4377,50.4761 L229.3727,50.5371 C227.2197,52.5421 224.2707,55.2881 225.6277,59.6661 C226.1167,61.2451 226.1167,61.2451 225.4837,61.9341 L225.1337,62.3091 C224.3127,63.1831 223.6047,63.9381 223.0367,65.7261 C222.9377,66.0391 222.8277,66.1621 222.4967,66.5341 C222.2107,66.8561 221.8187,67.2991 221.4587,67.9141 M191.9167,59.1481 C191.5107,60.3871 191.5087,61.6951 191.9117,62.9341 L192.4517,64.5961 C192.5417,64.8761 192.5177,65.1741 192.3837,65.4361 C192.2507,65.6991 192.0227,65.8921 191.7437,65.9821 L190.0507,66.5341 C189.1847,66.8141 188.5397,67.5441 188.3687,68.4401 L187.2777,74.1331 C184.7257,71.6211 182.5147,68.7581 180.7047,65.6221 C178.3197,61.4931 176.7217,57.0351 175.9527,52.3671 L179.1117,51.3401 L185.8117,56.4351 C186.1117,56.6641 186.4687,56.8241 186.8447,56.8991 L191.0827,57.7261 C191.3957,57.7861 191.6577,57.9721 191.8207,58.2501 C191.9827,58.5261 192.0167,58.8451 191.9167,59.1481 M177.2837,39.3701 L178.0807,40.5381 C177.8907,40.5631 177.7117,40.5861 177.5497,40.6071 L177.5037,40.5631 C177.1507,40.2361 176.6887,39.8201 176.0107,39.2241 C177.4267,31.0481 181.4507,23.3931 187.3527,17.6441 C188.1907,18.0261 188.8417,18.7021 189.1937,19.5561 C189.6367,20.6301 189.4107,21.8751 188.6177,22.7261 L186.6097,24.8751 C186.4757,25.0201 186.3617,25.1761 186.2707,25.3361 L181.8027,33.1391 L177.8957,35.9311 C176.7817,36.7271 176.5127,38.2381 177.2837,39.3701 M253.3317,23.6921 C247.3967,13.4141 237.8157,6.0621 226.3527,2.9911 C214.8907,-0.0819 202.9167,1.4971 192.6397,7.4291 C182.3617,13.3641 175.0107,22.9451 171.9397,34.4071 C168.8677,45.8711 170.4437,57.8431 176.3777,68.1211 C181.7017,77.3391 190.1607,84.3461 200.1987,87.8481 C204.9317,89.4991 209.8717,90.3361 214.8837,90.3361 C220.3407,90.3361 225.6787,89.3491 230.7487,87.4011 C232.0327,86.9081 232.6767,85.4601 232.1837,84.1731 C231.6877,82.8891 230.2407,82.2421 228.9557,82.7381 C216.3787,87.5701 202.4427,85.7461 191.6517,77.8531 L192.9977,70.8281 L193.2877,70.7351 C196.4847,69.6961 198.2407,66.2491 197.2027,63.0521 L196.6627,61.3921 C196.5897,61.1661 196.5897,60.9291 196.6637,60.7061 C197.2087,59.0461 197.0137,57.2291 196.1287,55.7221 C195.2467,54.2151 193.7557,53.1591 192.0397,52.8231 L188.3727,52.1051 L181.0957,46.5731 C180.4447,46.0781 179.5897,45.9331 178.8117,46.1851 L175.4537,47.2761 C175.4337,46.6601 175.4267,46.0391 175.4357,45.4281 C175.7907,45.6041 176.1927,45.6831 176.7217,45.6831 C177.3707,45.6831 178.2237,45.5721 179.8917,45.3271 C181.1957,45.1341 182.4927,44.9191 182.7457,44.8771 L182.7897,44.8701 C183.6347,44.7291 184.3387,44.1751 184.6747,43.3861 C185.0107,42.6011 184.9237,41.7091 184.4417,41.0001 L182.7877,38.5721 L185.1527,36.8841 C185.4427,36.6741 185.6897,36.4011 185.8657,36.0941 L190.4477,28.0841 L192.2697,26.1321 C194.3937,23.8561 194.9987,20.5291 193.8127,17.6531 C193.2707,16.3371 192.4057,15.1751 191.3057,14.2761 C192.5357,13.3611 193.8237,12.5141 195.1377,11.7551 C200.4827,8.6691 206.5467,6.8691 212.6997,6.5391 L210.8657,8.8381 L199.7917,12.7211 C199.1217,12.9561 198.5817,13.4671 198.3097,14.1231 L195.1557,21.7681 C194.8267,22.5681 194.9307,23.4681 195.4337,24.1721 L199.6497,30.0781 C199.0917,30.6901 198.5347,31.4651 197.9667,32.2701 L197.9317,32.3191 C197.6277,32.7511 197.3397,33.1611 197.1427,33.3871 L196.5747,34.0321 C195.5487,35.1861 194.4877,36.3801 193.7117,38.0221 C191.9887,41.6681 192.3407,45.9111 194.6277,49.0951 C196.8457,52.1781 200.4957,53.7451 204.3987,53.2961 C205.0307,53.2211 205.6037,53.0811 206.1627,52.9431 C207.4437,52.6271 207.6627,52.6561 207.8117,52.7601 C207.8147,52.8201 207.8197,52.9431 207.8167,53.1951 C207.8137,53.6701 207.8097,54.3221 207.9917,55.0691 C208.2927,56.3111 209.0557,57.1501 209.6177,57.7691 C209.9037,58.0841 210.0637,58.2741 210.0897,58.3281 C210.5067,59.3321 210.3577,59.7881 209.8607,61.3031 L209.7277,61.7131 C208.8617,64.3911 210.0037,66.9061 211.0247,69.1521 C211.3187,69.8001 211.5957,70.4121 211.7707,70.9351 C213.3957,75.7571 214.6667,76.8981 215.7987,77.4141 C216.3647,77.6701 216.9747,77.7991 217.6147,77.7991 C220.4117,77.7991 223.2137,75.2711 224.4297,73.7781 C225.2937,72.7151 225.5077,71.6511 225.6487,70.9451 C225.6727,70.8221 225.7377,70.4971 225.7717,70.4351 C225.8837,70.2441 226.0307,70.0771 226.2447,69.8351 C226.7237,69.2951 227.3797,68.5581 227.7977,67.2381 C228.0237,66.5291 228.1387,66.4061 228.7767,65.7261 L229.1607,65.3161 C231.7387,62.5091 231.0587,60.3111 230.3997,58.1861 C230.0297,56.9961 230.6397,56.1821 232.8007,54.1721 C233.7787,53.2591 234.7897,52.3141 235.5967,51.1461 C235.9917,50.5741 237.1977,48.8331 236.3927,46.9671 C235.6037,45.1381 233.7207,44.8471 232.3377,44.6331 C231.4357,44.4971 231.2087,44.4281 231.1677,44.4081 C230.3067,43.8441 229.7037,42.4991 229.1207,41.1991 C228.9987,40.9261 228.8777,40.6571 228.7557,40.3971 C228.5387,39.9321 228.3157,39.3531 228.0977,38.7871 C227.4517,37.1171 226.7187,35.2231 225.4177,33.8431 C224.1897,32.5421 222.0347,31.9571 220.1087,31.4351 C219.5517,31.2841 219.0237,31.1431 218.6797,31.0161 C218.2177,30.8441 217.7217,30.8141 217.2437,30.9271 C216.2517,31.1601 215.6137,31.4301 215.1097,31.8331 C215.0107,31.9141 214.8707,32.0411 214.7257,32.2131 C214.4677,32.0611 214.1697,31.8731 213.8187,31.6421 C213.8697,30.9541 213.6887,30.3951 213.5217,30.0401 C212.3387,27.5391 208.7167,27.7241 208.0037,27.7861 C207.6597,27.8131 207.2257,27.8311 206.7627,27.8461 C206.4547,27.8561 206.1287,27.8681 205.7937,27.8851 C206.4667,27.0631 207.4707,26.5811 208.5437,26.5811 L209.5127,26.5811 C210.8907,26.5811 212.0107,25.4621 212.0107,24.0841 C212.0107,22.7071 210.8907,21.5861 209.5127,21.5861 L208.5437,21.5861 C206.0177,21.5861 203.5697,22.7471 201.9477,24.7001 L200.3017,22.3941 L202.5007,17.0641 L213.1967,13.3141 C213.6407,13.1591 214.0307,12.8831 214.3237,12.5141 L218.9577,6.7001 C231.4967,8.0301 242.7247,15.3111 249.0047,26.1891 C250.6527,29.0431 251.9347,32.1031 252.8157,35.2851 L252.4577,35.6051 C252.0197,35.9961 251.6537,36.4511 251.3687,36.9591 L251.0357,36.0401 C250.8297,35.4701 250.5227,34.9451 250.1257,34.4781 L248.0257,32.0201 C247.0607,30.8901 245.6547,30.2431 244.1697,30.2431 L241.5987,30.2431 C240.3927,30.2431 239.2907,30.9021 238.7227,31.9651 C238.1957,32.9501 238.2117,34.1391 238.7557,35.1041 C237.4837,36.1131 236.0347,36.9741 234.5457,37.6051 L231.4437,31.6631 L231.4437,30.3511 C231.4437,29.6721 231.1627,29.0141 230.6717,28.5441 L227.4977,25.5161 C227.2417,25.2701 226.9407,25.0851 226.6017,24.9651 L223.7447,23.9621 C222.4427,23.5061 221.0177,24.1911 220.5597,25.4901 C220.3387,26.1201 220.3757,26.7971 220.6647,27.3971 C220.9537,28.0021 221.4597,28.4551 222.0877,28.6741 L224.4367,29.5001 L226.4497,31.4201 L226.4497,32.2751 C226.4497,32.6751 226.5467,33.0761 226.7317,33.4321 L231.1447,41.8831 C231.7237,42.9921 233.0467,43.5041 234.2227,43.0701 L235.5077,42.5971 C238.5967,41.4561 241.4617,39.6231 243.7937,37.2921 C244.2437,36.8421 244.5007,36.2391 244.5217,35.6131 L246.3527,37.7751 L248.6587,44.1211 C248.9527,44.9281 249.6267,45.5181 250.4607,45.7031 C251.2747,45.8881 252.1787,45.6261 252.7717,45.0331 L253.8757,43.9311 C253.9807,43.8241 254.0837,43.7151 254.1807,43.6001 C254.9027,56.5541 249.3417,68.9731 239.2457,76.8971 C238.7207,77.3101 238.3877,77.9001 238.3087,78.5641 C238.2287,79.2271 238.4117,79.8791 238.8227,80.4041 C239.2347,80.9291 239.8267,81.2621 240.4867,81.3421 C241.1437,81.4241 241.7997,81.2451 242.3307,80.8261 C250.6617,74.2881 256.3847,64.9351 258.4467,54.4931 C260.5277,43.9481 258.7107,33.0091 253.3317,23.6921" id="Fill-10" fill="#FFFFFF"></path>
            <path d="M401.967,1.6309 L399.567,1.6309 C398.338,1.6309 397.223,2.3459 396.71,3.4619 L359.001,85.4339 C358.043,87.5169 359.566,89.8929 361.859,89.8929 C363.093,89.8929 364.213,89.1709 364.723,88.0469 L397.844,14.9969 C398.959,12.5379 402.451,12.5349 403.571,14.9939 L436.809,88.0499 C437.32,89.1729 438.439,89.8929 439.671,89.8929 L439.674,89.8929 C441.968,89.8929 443.489,87.5169 442.531,85.4339 L404.824,3.4619 C404.311,2.3459 403.196,1.6309 401.967,1.6309" id="Fill-12" fill="#FFFFFF"></path>
            <path d="M13.8103,154.3828 C9.5163,152.0748 6.1433,148.8728 3.6853,144.7788 C1.2293,140.6848 0.0003,136.0568 0.0003,130.8938 C0.0003,125.7328 1.2293,121.1038 3.6853,117.0088 C6.1433,112.9148 9.5163,109.7138 13.8103,107.4058 C18.1023,105.0978 22.9303,103.9438 28.2903,103.9438 C32.8073,103.9438 36.8903,104.7388 40.5383,106.3258 C44.1853,107.9158 47.2493,110.1978 49.7313,113.1758 L41.9893,120.3228 C38.4643,116.2538 34.0983,114.2178 28.8863,114.2178 C25.6593,114.2178 22.7813,114.9248 20.2503,116.3398 C17.7193,117.7538 15.7463,119.7268 14.3313,122.2578 C12.9163,124.7898 12.2093,127.6688 12.2093,130.8938 C12.2093,134.1208 12.9163,136.9988 14.3313,139.5298 C15.7463,142.0618 17.7193,144.0348 20.2503,145.4488 C22.7813,146.8638 25.6593,147.5708 28.8863,147.5708 C34.0983,147.5708 38.4643,145.5118 41.9893,141.3918 L49.7313,148.5388 C47.2493,151.5668 44.1733,153.8748 40.5003,155.4628 C36.8273,157.0498 32.7323,157.8448 28.2163,157.8448 C22.9053,157.8448 18.1023,156.6908 13.8103,154.3828" id="Fill-14" fill="#FFFFFF"></path>
            <polygon id="Fill-16" fill="#FFFFFF" points="105.6418 104.8374 105.6418 156.9514 93.5808 156.9514 93.5808 135.5844 69.9058 135.5844 69.9058 156.9514 57.8458 156.9514 57.8458 104.8374 69.9058 104.8374 69.9058 125.3854 93.5808 125.3854 93.5808 104.8374"></polygon>
            <polygon id="Fill-18" fill="#FFFFFF" points="363.1575 104.8374 363.1575 156.9514 353.2565 156.9514 327.2735 125.3104 327.2735 156.9514 315.3615 156.9514 315.3615 104.8374 325.3385 104.8374 351.2465 136.4784 351.2465 104.8374"></polygon>
            <g id="Group-22" transform="translate(369.000000, 103.845000)">
                <mask id="mask-4" fill="white">
                    <use xlink:href="#path-3"></use>
                </mask>
                <g id="Clip-21"></g>
                <path d="M39.0383,26.2302 L50.0573,26.2302 L50.0573,47.3742 C47.2273,49.5082 43.9513,51.1462 40.2293,52.2872 C36.5073,53.4292 32.7593,54.0002 28.9873,54.0002 C23.5773,54.0002 18.7143,52.8462 14.3953,50.5382 C10.0783,48.2302 6.6903,45.0282 4.2333,40.9342 C1.7773,36.8392 0.5483,32.2112 0.5483,27.0492 C0.5483,21.8872 1.7773,17.2592 4.2333,13.1642 C6.6903,9.0692 10.1013,5.8682 14.4703,3.5612 C18.8373,1.2522 23.7513,0.0992 29.2113,0.0992 C33.7773,0.0992 37.9213,0.8692 41.6443,2.4072 C45.3663,3.9452 48.4933,6.1792 51.0243,9.1072 L43.2813,16.2542 C39.5593,12.3342 35.0663,10.3732 29.8073,10.3732 C26.4813,10.3732 23.5273,11.0682 20.9473,12.4572 C18.3653,13.8482 16.3563,15.8072 14.9173,18.3382 C13.4763,20.8702 12.7583,23.7732 12.7583,27.0492 C12.7583,30.2762 13.4763,33.1542 14.9173,35.6852 C16.3563,38.2162 18.3523,40.1892 20.9093,41.6042 C23.4663,43.0192 26.3823,43.7262 29.6573,43.7262 C33.1313,43.7262 36.2583,42.9812 39.0383,41.4922 L39.0383,26.2302 Z" id="Fill-20" fill="#FFFFFF" mask="url(#mask-4)"></path>
            </g>
            <g id="Group-25" transform="translate(474.000000, 103.845000)">
                <mask id="mask-6" fill="white">
                    <use xlink:href="#path-5"></use>
                </mask>
                <g id="Clip-24"></g>
                <path d="M9.7776,52.325 C5.9306,51.208 2.8406,49.756 0.5086,47.97 L4.6036,38.887 C6.8376,40.525 9.4916,41.84 12.5696,42.832 C15.6466,43.825 18.7226,44.322 21.8016,44.322 C25.2256,44.322 27.7566,43.813 29.3956,42.795 C31.0336,41.779 31.8516,40.426 31.8516,38.738 C31.8516,37.497 31.3686,36.467 30.3996,35.648 C29.4316,34.829 28.1916,34.172 26.6776,33.675 C25.1636,33.179 23.1156,32.633 20.5366,32.037 C16.5646,31.095 13.3146,30.152 10.7836,29.208 C8.2516,28.266 6.0796,26.752 4.2686,24.667 C2.4566,22.582 1.5516,19.803 1.5516,16.329 C1.5516,13.302 2.3706,10.559 4.0076,8.102 C5.6466,5.645 8.1146,3.698 11.4166,2.258 C14.7156,0.819 18.7486,0.099 23.5126,0.099 C26.8386,0.099 30.0896,0.497 33.2666,1.29 C36.4416,2.085 39.2226,3.226 41.6046,4.715 L37.8816,13.872 C33.0676,11.143 28.2526,9.777 23.4396,9.777 C20.0636,9.777 17.5696,10.324 15.9576,11.415 C14.3436,12.507 13.5376,13.947 13.5376,15.733 C13.5376,17.52 14.4676,18.848 16.3296,19.717 C18.1906,20.585 21.0316,21.442 24.8536,22.284 C28.8236,23.228 32.0746,24.171 34.6056,25.114 C37.1366,26.057 39.3086,27.546 41.1206,29.58 C42.9316,31.616 43.8386,34.371 43.8386,37.845 C43.8386,40.822 43.0066,43.54 41.3446,45.997 C39.6806,48.453 37.1866,50.402 33.8626,51.841 C30.5366,53.28 26.4916,54 21.7266,54 C17.6066,54 13.6246,53.442 9.7776,52.325" id="Fill-23" fill="#FFFFFF" mask="url(#mask-6)"></path>
            </g>
            <polygon id="Fill-26" fill="#FFFFFF" points="146.2908 104.8374 134.3788 104.8374 111.1508 156.9514 123.5098 156.9514 140.2608 116.6754 156.9368 156.9514 169.5938 156.9514"></polygon>
            <mask id="mask-8" fill="white">
                <use xlink:href="#path-7"></use>
            </mask>
            <g id="Clip-29"></g>
            <polygon id="Fill-28" fill="#FFFFFF" mask="url(#mask-8)" points="267.407 114.516 307.759 114.516 307.759 104.838 267.407 104.838"></polygon>
            <polygon id="Fill-30" fill="#FFFFFF" mask="url(#mask-8)" points="267.407 156.952 307.759 156.952 307.759 147.274 267.407 147.274"></polygon>
            <polygon id="Fill-31" fill="#FFFFFF" mask="url(#mask-8)" points="267.407 134.999 303.202 134.999 303.202 125.832 267.407 125.832"></polygon>
            <polygon id="Fill-32" fill="#FFFFFF" mask="url(#mask-8)" points="428.393 114.516 468.745 114.516 468.745 104.838 428.393 104.838"></polygon>
            <polygon id="Fill-33" fill="#FFFFFF" mask="url(#mask-8)" points="428.393 156.952 468.745 156.952 468.745 147.274 428.393 147.274"></polygon>
            <polygon id="Fill-34" fill="#FFFFFF" mask="url(#mask-8)" points="428.394 134.999 464.189 134.999 464.189 125.832 428.394 125.832"></polygon>
            <polygon id="Fill-35" fill="#FFFFFF" mask="url(#mask-8)" points="215.9216 147.2735 215.9216 156.9515 175.5706 156.9515 175.5706 104.8375 187.5566 104.8375 187.5566 147.2735"></polygon>
            <polygon id="Fill-36" fill="#FFFFFF" mask="url(#mask-8)" points="261.2346 147.2735 261.2346 156.9515 220.8836 156.9515 220.8836 104.8375 232.8696 104.8375 232.8696 147.2735"></polygon>
        </g>
    </g>
</svg>