<svg xmlns="http://www.w3.org/2000/svg" viewBox="0 0 517.84 156.84"><defs><style>.cls-1{fill:#00b8c3;}.cls-2{fill:#f15a22;}</style></defs><title>Asset 1</title><g id="Layer_2" data-name="Layer 2"><g id="Layer_2-2" data-name="Layer 2"><path class="cls-1" d="M74.45,45.14h.27a3,3,0,0,1,3,3V76.86a2.94,2.94,0,0,1-1,2.2,38.69,38.69,0,0,1-13.1,7.56,52.18,52.18,0,0,1-17.46,2.9,48.08,48.08,0,0,1-23.64-5.8A42.53,42.53,0,0,1,6,67.71,44.55,44.55,0,0,1,0,44.76,44.55,44.55,0,0,1,6,21.81a42.66,42.66,0,0,1,16.52-16A48.36,48.36,0,0,1,46.27,0,49.9,49.9,0,0,1,64.12,3.09,39,39,0,0,1,75.81,10,3,3,0,0,1,76,14.27h0a3,3,0,0,1-4.07.2A32.58,32.58,0,0,0,61.59,8.39,44.78,44.78,0,0,0,46.4,5.93a41.7,41.7,0,0,0-20.49,5A36.85,36.85,0,0,0,11.6,24.9,38.76,38.76,0,0,0,6.43,44.76,38.05,38.05,0,0,0,26,78.49,41,41,0,0,0,46.4,83.6q14.26,0,23.94-7.18a2.91,2.91,0,0,0,1.15-2.35v-26A3,3,0,0,1,74.45,45.14Z"/><path class="cls-1" d="M108.81.63h.63a2.9,2.9,0,0,1,2.9,2.9V80.19a2.9,2.9,0,0,0,2.9,2.9h45a2.9,2.9,0,0,1,2.9,2.9h0a2.9,2.9,0,0,1-2.9,2.9H108.81a2.9,2.9,0,0,1-2.9-2.9V3.53A2.9,2.9,0,0,1,108.81.63Z"/><path class="cls-1" d="M343.77,50.81q5,5.69,5,14.76,0,11.22-8.19,17.27t-24.34,6H280.43a3.55,3.55,0,0,1-3.55-3.54V4.18A3.55,3.55,0,0,1,280.43.63H313.7q14.39,0,22.38,5.86t8,16.71a20.3,20.3,0,0,1-4,12.74,20.45,20.45,0,0,1-3.87,3.85,3.53,3.53,0,0,0,.69,6A20.66,20.66,0,0,1,343.77,50.81ZM283.32,9.72V37.81a3.54,3.54,0,0,0,3.54,3.55h26.59q11.6,0,17.84-4.48t6.24-13.18q0-8.57-6.24-13T313.45,6.18H286.86A3.54,3.54,0,0,0,283.32,9.72ZM335.7,78.87q6.63-4.47,6.62-13.81T335.7,51.32q-6.61-4.41-19.48-4.42H286.86a3.54,3.54,0,0,0-3.54,3.55V79.8a3.53,3.53,0,0,0,3.54,3.54h29.36Q329.09,83.34,335.7,78.87Z"/><path class="cls-1" d="M463.49.63h.63a2.9,2.9,0,0,1,2.9,2.9V80.19a2.9,2.9,0,0,0,2.9,2.9h45a2.9,2.9,0,0,1,2.9,2.9h0a2.9,2.9,0,0,1-2.9,2.9H463.49a2.9,2.9,0,0,1-2.9-2.9V3.53A2.9,2.9,0,0,1,463.49.63Z"/><path class="cls-1" d="M253.33,22.69a44.42,44.42,0,1,0-38.45,66.65,44,44,0,0,0,15.87-2.94A2.5,2.5,0,0,0,229,81.74a39.13,39.13,0,0,1-37.31-4.89l1.35-7,.29-.1a6.1,6.1,0,0,0,3.91-7.68l-.54-1.66a1.13,1.13,0,0,1,0-.68A6.09,6.09,0,0,0,192,51.82l-3.67-.71-7.27-5.54a2.54,2.54,0,0,0-2.29-.39l-3.36,1.1c0-.62,0-1.24,0-1.85a2.83,2.83,0,0,0,1.28.25,25.2,25.2,0,0,0,3.17-.35l2.86-.45h0A2.5,2.5,0,0,0,184.44,40l-1.65-2.43,2.36-1.69a2.59,2.59,0,0,0,.72-.79l4.58-8,1.82-1.95a8,8,0,0,0,1.54-8.48,8.52,8.52,0,0,0-2.5-3.37,38.39,38.39,0,0,1,3.83-2.53A39.55,39.55,0,0,1,212.7,5.54l-1.83,2.3-11.08,3.88a2.52,2.52,0,0,0-1.48,1.4l-3.15,7.65a2.48,2.48,0,0,0,.27,2.4l4.22,5.91A20.85,20.85,0,0,0,198,31.27l0,.05c-.3.43-.59.84-.79,1.07l-.56.64a16.73,16.73,0,0,0-2.87,4,11,11,0,0,0,.92,11.07,10.39,10.39,0,0,0,9.77,4.21,14.78,14.78,0,0,0,1.76-.36c1.28-.31,1.5-.28,1.65-.18a3.93,3.93,0,0,1,0,.44,7.1,7.1,0,0,0,.17,1.87,6.16,6.16,0,0,0,1.63,2.7,5,5,0,0,1,.47.56c.42,1,.27,1.46-.23,3l-.13.41c-.87,2.68.27,5.2,1.29,7.44a17.87,17.87,0,0,1,.75,1.78c1.63,4.83,2.9,6,4,6.48a4.27,4.27,0,0,0,1.81.39c2.8,0,5.6-2.53,6.82-4a6.1,6.1,0,0,0,1.22-2.84,3.69,3.69,0,0,1,.12-.5,4,4,0,0,1,.47-.61,6.56,6.56,0,0,0,1.56-2.59,3,3,0,0,1,1-1.51l.38-.41c2.58-2.81,1.9-5,1.24-7.13-.37-1.19.24-2,2.4-4a19.24,19.24,0,0,0,2.8-3c.39-.58,1.6-2.32.79-4.18s-2.67-2.12-4-2.34a6.55,6.55,0,0,1-1.17-.22,7.74,7.74,0,0,1-2-3.21l-.36-.8c-.22-.47-.44-1-.66-1.61a15,15,0,0,0-2.68-4.95c-1.23-1.3-3.39-1.88-5.31-2.41-.56-.15-1.09-.29-1.43-.41a2.36,2.36,0,0,0-1.44-.09,5.12,5.12,0,0,0-2.13.9,2.68,2.68,0,0,0-.38.38c-.26-.15-.56-.34-.91-.57a3.16,3.16,0,0,0-.3-1.6c-1.18-2.5-4.8-2.32-5.52-2.25l-1.24.06-1,0a3.57,3.57,0,0,1,2.75-1.3h1a2.5,2.5,0,1,0,0-5h-1A8.64,8.64,0,0,0,202,23.7l-1.65-2.31,2.2-5.33,10.7-3.75a2.42,2.42,0,0,0,1.12-.8L219,5.7a39.38,39.38,0,0,1,33.86,28.58l-.36.32A5.27,5.27,0,0,0,251.37,36L251,35a5.19,5.19,0,0,0-.91-1.56L248,31a5.09,5.09,0,0,0-3.86-1.78H241.6a3.26,3.26,0,0,0-2.84,4.86,19.14,19.14,0,0,1-4.21,2.51l-3.11-5.95V29.35a2.52,2.52,0,0,0-.77-1.81l-3.17-3a2.46,2.46,0,0,0-.9-.55l-2.86-1a2.5,2.5,0,0,0-3.18,1.53,2.53,2.53,0,0,0,.1,1.91,2.49,2.49,0,0,0,1.43,1.27l2.35.83,2,1.92v.86a2.57,2.57,0,0,0,.28,1.15l4.41,8.45a2.51,2.51,0,0,0,3.08,1.19l1.29-.47a23.11,23.11,0,0,0,8.28-5.31,2.49,2.49,0,0,0,.73-1.68l1.83,2.17,2.31,6.34a2.46,2.46,0,0,0,1.8,1.58,2.5,2.5,0,0,0,2.31-.67l1.11-1.1.3-.33a39.48,39.48,0,0,1-14.93,33.3,2.49,2.49,0,0,0,1.24,4.44,2.5,2.5,0,0,0,1.84-.51,44.43,44.43,0,0,0,11-57.14ZM177.28,38.37l.8,1.17-.53.07-.05,0c-.35-.32-.81-.74-1.49-1.34a39.86,39.86,0,0,1,11.34-21.58,3.6,3.6,0,0,1,1.84,1.92,3,3,0,0,1-.57,3.17l-2,2.14a2.94,2.94,0,0,0-.34.47l-4.47,7.8-3.9,2.79A2.48,2.48,0,0,0,177.28,38.37Zm14.64,19.78a6,6,0,0,0,0,3.78l.54,1.67a1.1,1.1,0,0,1-.71,1.38l-1.69.55a2.48,2.48,0,0,0-1.68,1.91l-1.09,5.69a39.91,39.91,0,0,1-6.58-8.51A39.29,39.29,0,0,1,176,51.37l3.16-1,6.7,5.1a2.74,2.74,0,0,0,1,.46l4.24.83a1.05,1.05,0,0,1,.74.52A1.09,1.09,0,0,1,191.92,58.15Zm29.54,8.76a6.23,6.23,0,0,0-.71,2.06,1.73,1.73,0,0,1-.19.65,8.88,8.88,0,0,1-2,1.74,3.65,3.65,0,0,1-.66.35,17.36,17.36,0,0,1-1.42-3.37c-.25-.74-.6-1.5-.93-2.24l0,0c-.63-1.39-1.35-3-1.08-3.81l.13-.39c.6-1.84,1.22-3.74.09-6.45a6.89,6.89,0,0,0-1.39-2c-.37-.41-.45-.52-.46-.52h0a3.14,3.14,0,0,1,0-.67,5,5,0,0,0-1.57-4.07,5.16,5.16,0,0,0-3.7-1.45,10.71,10.71,0,0,0-2.58.39l-.07,0a7,7,0,0,1-1.07.22,5.34,5.34,0,0,1-5.14-2.15,6,6,0,0,1-.45-6,12.68,12.68,0,0,1,2.15-2.89l.54-.61c.36-.42.77-1,1.13-1.51a11.39,11.39,0,0,1,1.44-1.88,11.56,11.56,0,0,1,3.45-.43h.13l1.11-.06a1.36,1.36,0,0,0,0,.2,2.51,2.51,0,0,0,1.29,1.82c.29.16.72.44,1.17.74,1.41.94,3,2,4.65,2.12a3.65,3.65,0,0,0,2.94-1.22,1.33,1.33,0,0,0,.27-.26l.33.09a10.35,10.35,0,0,1,2.93,1,11.92,11.92,0,0,1,1.67,3.34c.28.73.51,1.33.78,1.91.1.21.2.42.3.65l.05.1c.83,1.86,1.77,3.95,3.85,5.32a6.24,6.24,0,0,0,2.13.81c-.34.35-.72.7-1.12,1.08l-.07.06c-2.15,2-5.1,4.75-3.74,9.13.49,1.57.49,1.57-.15,2.26l-.35.38A7.66,7.66,0,0,0,223,64.73a2,2,0,0,1-.54.8A8.74,8.74,0,0,0,221.46,66.91Z"/><path class="cls-1" d="M402,.63h-2.4a3.15,3.15,0,0,0-2.86,1.83L359,84.43a3.15,3.15,0,0,0,2.86,4.46h0a3.15,3.15,0,0,0,2.86-1.84l33.12-73a3.15,3.15,0,0,1,5.73,0l33.24,73.06a3.15,3.15,0,0,0,2.86,1.84h0a3.14,3.14,0,0,0,2.86-4.46l-37.71-82A3.14,3.14,0,0,0,402,.63Z"/><path class="cls-2" d="M13.81,153.38a25.84,25.84,0,0,1-10.12-9.6,28,28,0,0,1,0-27.77,25.7,25.7,0,0,1,10.12-9.6,30.06,30.06,0,0,1,14.48-3.47,30.36,30.36,0,0,1,12.25,2.39,24.48,24.48,0,0,1,9.19,6.85L42,119.32a16.65,16.65,0,0,0-13.1-6.1,17.34,17.34,0,0,0-8.64,2.12,15.11,15.11,0,0,0-5.92,5.92,18.65,18.65,0,0,0,0,17.27,15.18,15.18,0,0,0,5.92,5.92,17.45,17.45,0,0,0,8.64,2.12A16.57,16.57,0,0,0,42,140.39l7.74,7.15a24.12,24.12,0,0,1-9.23,6.92,30.6,30.6,0,0,1-12.28,2.38A29.89,29.89,0,0,1,13.81,153.38Z"/><path class="cls-2" d="M105.64,103.84V156H93.58V134.58H69.91V156H57.85V103.84H69.91v20.55H93.58V103.84Z"/><path class="cls-2" d="M363.16,103.84V156h-9.9l-26-31.64V156H315.36V103.84h10l25.91,31.64V103.84Z"/><path class="cls-2" d="M408,129.07h11v21.15a31.58,31.58,0,0,1-9.83,4.91A38.19,38.19,0,0,1,398,156.84a30.41,30.41,0,0,1-14.59-3.46,25.84,25.84,0,0,1-10.17-9.6,28,28,0,0,1,0-27.77,25.56,25.56,0,0,1,10.24-9.6,31,31,0,0,1,14.74-3.47,32.2,32.2,0,0,1,12.43,2.31A24.56,24.56,0,0,1,420,112l-7.74,7.15a17.9,17.9,0,0,0-13.47-5.88A18.37,18.37,0,0,0,390,115.3a15,15,0,0,0-6,5.88,18.5,18.5,0,0,0,0,17.35,15.29,15.29,0,0,0,6,5.92,17.82,17.82,0,0,0,8.75,2.12,19.55,19.55,0,0,0,9.38-2.23Z"/><path class="cls-2" d="M483.78,155.17a28,28,0,0,1-9.27-4.36l4.09-9.08a28,28,0,0,0,8,4,30,30,0,0,0,9.23,1.49q5.15,0,7.6-1.53a4.62,4.62,0,0,0,2.45-4.06,3.87,3.87,0,0,0-1.45-3.09,11.09,11.09,0,0,0-3.72-2c-1.52-.5-3.56-1-6.14-1.64a82.47,82.47,0,0,1-9.76-2.83,15.75,15.75,0,0,1-6.51-4.54,12.26,12.26,0,0,1-2.72-8.34A14.47,14.47,0,0,1,478,111a16.49,16.49,0,0,1,7.41-5.85,30.19,30.19,0,0,1,12.09-2.16,40.31,40.31,0,0,1,9.76,1.19,29,29,0,0,1,8.33,3.43l-3.72,9.16a29.05,29.05,0,0,0-14.44-4.1q-5.07,0-7.48,1.64a5,5,0,0,0-2.42,4.32,4.23,4.23,0,0,0,2.79,4,43.4,43.4,0,0,0,8.52,2.57,85.62,85.62,0,0,1,9.76,2.83,16.14,16.14,0,0,1,6.51,4.46,12,12,0,0,1,2.72,8.27,14.18,14.18,0,0,1-2.5,8.15,16.7,16.7,0,0,1-7.48,5.85,30.65,30.65,0,0,1-12.13,2.15A42.49,42.49,0,0,1,483.78,155.17Z"/><polygon class="cls-2" points="146.29 103.84 134.38 103.84 111.15 155.95 123.51 155.95 140.26 115.67 156.94 155.95 169.59 155.95 146.29 103.84"/><rect class="cls-2" x="267.41" y="103.84" width="40.35" height="9.68"/><rect class="cls-2" x="267.41" y="146.27" width="40.35" height="9.68"/><rect class="cls-2" x="267.41" y="124.83" width="35.79" height="9.17"/><rect class="cls-2" x="428.39" y="103.84" width="40.35" height="9.68"/><rect class="cls-2" x="428.39" y="146.27" width="40.35" height="9.68"/><rect class="cls-2" x="428.39" y="124.83" width="35.79" height="9.17"/><path class="cls-2" d="M215.92,146.27V156H175.57V103.84h12v42.43Z"/><path class="cls-2" d="M261.23,146.27V156H220.88V103.84h12v42.43Z"/></g></g></svg>