<?xml version="1.0" encoding="utf-8"?>
<!-- Generator: Adobe Illustrator 22.1.0, SVG Export Plug-In . SVG Version: 6.00 Build 0)  -->
<svg version="1.1" id="Isolation_Mode" xmlns="http://www.w3.org/2000/svg" xmlns:xlink="http://www.w3.org/1999/xlink" x="0px"
	 y="0px" width="431.3px" height="139.4px" viewBox="0 0 431.3 139.4" style="enable-background:new 0 0 431.3 139.4;"
	 xml:space="preserve">
<style type="text/css">
	.st0{fill:#FFFFFF;}
</style>
<g>
	<g>
		<path class="st0" d="M194.2,74.8h-4.9v12.8H185V74.8h-4.9v-3.7h14.1V74.8z"/>
		<path class="st0" d="M194,75.6h3.8v2.1h0c0.3-0.8,0.8-1.3,1.4-1.7s1.4-0.6,2.2-0.6c0.4,0,0.7,0,0.9,0.1v3.6
			c-0.6-0.2-1.1-0.2-1.5-0.2c-0.9,0-1.6,0.3-2.2,0.8s-0.8,1.2-0.8,2v5.9H194V75.6z"/>
		<path class="st0" d="M206.6,82.6c0,0.8,0.3,1.5,0.8,2c0.5,0.5,1.1,0.7,1.9,0.7c0.5,0,0.9-0.1,1.4-0.3c0.4-0.2,0.7-0.6,0.9-1h3.7
			c-0.3,1.3-1.1,2.3-2.2,3c-1.1,0.7-2.4,1-3.8,1c-2,0-3.6-0.6-4.8-1.7c-1.2-1.1-1.8-2.7-1.8-4.7c0-0.9,0.2-1.7,0.5-2.5
			c0.3-0.8,0.8-1.4,1.4-2c0.6-0.6,1.3-1,2.1-1.3c0.8-0.3,1.6-0.5,2.5-0.5c1,0,1.9,0.2,2.7,0.5c0.8,0.3,1.5,0.8,2,1.4
			c0.5,0.6,0.9,1.3,1.2,2.2c0.3,0.8,0.4,1.7,0.4,2.7c0,0.1,0,0.1,0,0.2v0.3H206.6z M211.5,80.4c0-0.7-0.3-1.3-0.7-1.7
			c-0.4-0.5-1-0.7-1.6-0.7c-0.7,0-1.2,0.2-1.7,0.7c-0.4,0.4-0.7,1-0.9,1.8H211.5z"/>
		<path class="st0" d="M217.4,75.6h3.8v1.6h0c0.4-0.6,0.9-1.1,1.6-1.4c0.7-0.4,1.4-0.5,2.2-0.5c0.9,0,1.7,0.2,2.3,0.5
			c0.6,0.3,1,0.7,1.3,1.2c0.3,0.5,0.5,1,0.6,1.5c0.1,0.5,0.1,1,0.1,1.6v7.7h-3.9v-5.8c0-1.2-0.1-2.1-0.3-2.6
			c-0.2-0.5-0.8-0.8-1.6-0.8c-0.7,0-1.2,0.2-1.6,0.7c-0.4,0.5-0.5,1.1-0.5,1.8v6.5h-3.9V75.6z"/>
		<path class="st0" d="M243.9,87.6h-3.7v-1.4h0c-0.8,1.2-1.9,1.7-3.3,1.7c-0.9,0-1.7-0.2-2.4-0.5c-0.7-0.4-1.2-0.9-1.7-1.5
			s-0.8-1.3-1-2.1c-0.2-0.8-0.3-1.6-0.3-2.5c0-0.8,0.1-1.5,0.3-2.3c0.2-0.7,0.5-1.4,1-2c0.4-0.6,1-1,1.6-1.4
			c0.6-0.3,1.4-0.5,2.2-0.5c1.5,0,2.6,0.5,3.4,1.6h0v-5.8h3.9V87.6z M236.6,78.6c-0.3,0.2-0.6,0.4-0.8,0.7c-0.2,0.3-0.3,0.7-0.4,1
			c-0.1,0.4-0.1,0.8-0.1,1.2c0,0.4,0,0.9,0.1,1.3c0.1,0.4,0.2,0.8,0.4,1.1c0.2,0.3,0.4,0.6,0.8,0.8c0.3,0.2,0.7,0.3,1.1,0.3
			c0.4,0,0.8-0.1,1.1-0.3c0.3-0.2,0.6-0.5,0.7-0.8c0.2-0.3,0.3-0.7,0.4-1.1c0.1-0.4,0.1-0.8,0.1-1.2c0-1-0.2-1.7-0.6-2.4
			c-0.4-0.6-1-0.9-1.8-0.9C237.3,78.3,236.9,78.4,236.6,78.6z"/>
		<path class="st0" d="M250.6,74.1h-3.9v-3h3.9V74.1z M246.7,75.6h3.9v12h-3.9V75.6z"/>
		<path class="st0" d="M253.4,75.6h3.8v1.6h0c0.4-0.6,0.9-1.1,1.6-1.4c0.7-0.4,1.4-0.5,2.2-0.5c0.9,0,1.7,0.2,2.3,0.5
			c0.6,0.3,1,0.7,1.3,1.2c0.3,0.5,0.5,1,0.6,1.5c0.1,0.5,0.1,1,0.1,1.6v7.7h-3.9v-5.8c0-1.2-0.1-2.1-0.3-2.6
			c-0.2-0.5-0.8-0.8-1.6-0.8c-0.7,0-1.2,0.2-1.6,0.7c-0.4,0.5-0.5,1.1-0.5,1.8v6.5h-3.9V75.6z"/>
		<path class="st0" d="M279.5,86.2c0,0.6-0.1,1.3-0.2,1.9c-0.1,0.6-0.4,1.2-0.8,1.8c-0.4,0.6-1,1.1-1.8,1.4
			c-0.8,0.4-1.9,0.6-3.2,0.6c-0.8,0-1.5-0.1-2.1-0.2c-0.6-0.1-1.2-0.3-1.8-0.6c-0.5-0.3-1-0.7-1.3-1.2s-0.6-1.1-0.7-1.9h3.9
			c0.1,0.5,0.3,0.9,0.7,1c0.3,0.2,0.8,0.3,1.4,0.3c0.4,0,0.8-0.1,1.1-0.2c0.3-0.1,0.5-0.3,0.6-0.6c0.1-0.3,0.2-0.5,0.3-0.9
			c0-0.3,0.1-0.7,0.1-1.1v-1.1h0c-0.4,0.6-0.8,1-1.4,1.3c-0.6,0.3-1.2,0.5-1.8,0.5c-1.7,0-3.1-0.5-3.9-1.6c-0.9-1.1-1.3-2.5-1.3-4.3
			c0-0.8,0.1-1.6,0.3-2.3c0.2-0.7,0.6-1.3,1-1.9c0.5-0.5,1-1,1.7-1.3c0.7-0.3,1.4-0.5,2.2-0.5c1.4,0,2.5,0.6,3.2,1.8h0v-1.5h3.8
			V86.2z M275.3,79.2c-0.4-0.6-1-0.9-1.8-0.9c-0.8,0-1.4,0.3-1.7,0.9c-0.4,0.6-0.5,1.3-0.5,2.1c0,0.8,0.2,1.5,0.6,2
			c0.4,0.5,0.9,0.8,1.7,0.8c0.8,0,1.4-0.3,1.8-0.8c0.4-0.5,0.6-1.2,0.6-2C275.8,80.5,275.6,79.7,275.3,79.2z"/>
		<path class="st0" d="M293.4,74.1h-3.9v-3h3.9V74.1z M289.5,75.6h3.9v12h-3.9V75.6z"/>
		<path class="st0" d="M308.1,87.6h-3.7v-1.4h0c-0.8,1.2-1.9,1.7-3.3,1.7c-0.9,0-1.7-0.2-2.4-0.5c-0.7-0.4-1.2-0.9-1.7-1.5
			c-0.4-0.6-0.8-1.3-1-2.1c-0.2-0.8-0.3-1.6-0.3-2.5c0-0.8,0.1-1.5,0.3-2.3c0.2-0.7,0.5-1.4,1-2c0.4-0.6,1-1,1.6-1.4
			c0.6-0.3,1.4-0.5,2.2-0.5c1.5,0,2.6,0.5,3.4,1.6h0v-5.8h3.9V87.6z M300.8,78.6c-0.3,0.2-0.6,0.4-0.8,0.7c-0.2,0.3-0.3,0.7-0.4,1
			c-0.1,0.4-0.1,0.8-0.1,1.2c0,0.4,0,0.9,0.1,1.3c0.1,0.4,0.2,0.8,0.4,1.1c0.2,0.3,0.4,0.6,0.8,0.8c0.3,0.2,0.7,0.3,1.1,0.3
			c0.4,0,0.8-0.1,1.1-0.3c0.3-0.2,0.6-0.5,0.7-0.8c0.2-0.3,0.3-0.7,0.4-1.1c0.1-0.4,0.1-0.8,0.1-1.2c0-1-0.2-1.7-0.6-2.4
			c-0.4-0.6-1-0.9-1.8-0.9C301.5,78.3,301.1,78.4,300.8,78.6z"/>
		<path class="st0" d="M314.1,82.6c0,0.8,0.3,1.5,0.8,2c0.5,0.5,1.1,0.7,1.9,0.7c0.5,0,0.9-0.1,1.4-0.3c0.4-0.2,0.7-0.6,0.9-1h3.7
			c-0.3,1.3-1.1,2.3-2.2,3c-1.1,0.7-2.4,1-3.8,1c-2,0-3.6-0.6-4.8-1.7c-1.2-1.1-1.8-2.7-1.8-4.7c0-0.9,0.2-1.7,0.5-2.5
			c0.3-0.8,0.8-1.4,1.4-2c0.6-0.6,1.3-1,2.1-1.3c0.8-0.3,1.6-0.5,2.5-0.5c1,0,1.9,0.2,2.7,0.5c0.8,0.3,1.5,0.8,2,1.4
			c0.5,0.6,0.9,1.3,1.2,2.2c0.3,0.8,0.4,1.7,0.4,2.7c0,0.1,0,0.1,0,0.2v0.3H314.1z M319,80.4c0-0.7-0.3-1.3-0.7-1.7
			c-0.4-0.5-1-0.7-1.6-0.7c-0.7,0-1.2,0.2-1.7,0.7c-0.4,0.4-0.7,1-0.9,1.8H319z"/>
		<path class="st0" d="M324.7,79.3c0-0.8,0.2-1.4,0.5-1.9c0.3-0.5,0.8-1,1.3-1.3c0.5-0.3,1.1-0.5,1.7-0.6c0.6-0.1,1.3-0.2,2.1-0.2
			c0.8,0,1.5,0.1,2.1,0.2c0.6,0.1,1.2,0.3,1.8,0.6c0.5,0.3,0.9,0.7,1.2,1.2c0.3,0.5,0.5,1.2,0.5,2v5.2c0,0.7,0,1.3,0.1,1.7
			c0.1,0.5,0.2,0.9,0.4,1.3h-4c-0.1-0.3-0.2-0.6-0.2-1.1c-0.5,0.5-1.1,0.9-1.8,1.1c-0.7,0.2-1.4,0.4-2.2,0.4c-1.2,0-2.2-0.3-2.9-0.9
			c-0.8-0.6-1.1-1.5-1.1-2.7c0-0.8,0.2-1.4,0.5-1.9c0.3-0.5,0.7-0.9,1.2-1.1c0.5-0.3,1-0.5,1.6-0.6c0.6-0.1,1.3-0.2,2.1-0.3
			c0.7-0.1,1.3-0.2,1.6-0.3c0.4-0.1,0.6-0.2,0.8-0.3c0.2-0.2,0.2-0.4,0.2-0.8c0-0.4-0.2-0.7-0.6-0.9c-0.4-0.2-0.8-0.3-1.3-0.3
			c-1.1,0-1.8,0.5-2,1.5H324.7z M328.6,85.2c0.3,0.2,0.7,0.3,1.2,0.3c0.9,0,1.5-0.3,1.9-0.8c0.4-0.5,0.5-1.4,0.5-2.7
			c-0.2,0.1-0.4,0.2-0.6,0.3c-0.2,0.1-0.5,0.1-0.9,0.2c-0.4,0.1-0.7,0.2-0.9,0.2c-0.5,0.1-0.9,0.3-1.2,0.5c-0.3,0.2-0.4,0.6-0.4,1
			C328.2,84.7,328.3,85,328.6,85.2z"/>
		<path class="st0" d="M341.6,83.7c0,0.6,0.2,1,0.6,1.3c0.4,0.3,0.9,0.4,1.5,0.4c0.5,0,0.9-0.1,1.3-0.3c0.4-0.2,0.6-0.5,0.6-1
			c0-0.4-0.2-0.6-0.5-0.8c-0.3-0.2-0.7-0.3-1.3-0.4c-0.1,0-0.1,0-0.2,0c-0.2-0.1-0.6-0.1-1.2-0.3c-0.7-0.2-1.3-0.3-1.8-0.4
			c-0.5-0.1-0.9-0.3-1.3-0.6c-0.4-0.3-0.7-0.6-1-1c-0.2-0.4-0.4-1-0.4-1.6c0-0.7,0.2-1.3,0.5-1.7c0.3-0.5,0.8-0.9,1.3-1.1
			c0.5-0.3,1.1-0.5,1.8-0.6c0.6-0.1,1.3-0.2,1.9-0.2c0.7,0,1.4,0.1,2,0.2c0.6,0.1,1.2,0.3,1.7,0.6c0.5,0.3,0.9,0.7,1.3,1.2
			c0.3,0.5,0.5,1.1,0.5,1.9h-3.6c0-0.5-0.2-0.8-0.5-1c-0.3-0.2-0.7-0.3-1.2-0.3c-0.5,0-0.9,0.1-1.2,0.2c-0.3,0.1-0.5,0.4-0.5,0.7
			c0,0.2,0.1,0.4,0.3,0.6c0.2,0.2,0.4,0.3,0.7,0.4c0.3,0.1,0.6,0.2,1,0.3c0.4,0.1,0.8,0.2,1.3,0.3c0.5,0.1,0.9,0.1,1.1,0.2
			c0.6,0.1,1.1,0.3,1.5,0.5c0.4,0.3,0.7,0.5,0.9,0.8c0.2,0.3,0.4,0.6,0.5,0.9c0.1,0.3,0.1,0.6,0.1,0.9c0,0.8-0.2,1.4-0.5,2
			c-0.3,0.6-0.8,1-1.3,1.3c-0.5,0.3-1.2,0.6-1.8,0.7c-0.7,0.2-1.4,0.2-2.1,0.2c-0.8,0-1.5-0.1-2.2-0.2c-0.7-0.1-1.3-0.4-1.8-0.7
			c-0.6-0.3-1-0.8-1.3-1.3c-0.3-0.6-0.5-1.2-0.5-2H341.6z"/>
		<path class="st0" d="M291.1,103.4h-1.9v-2.5h1.9c0-1.7,0.3-2.9,1-3.5c0.7-0.6,1.9-1,3.5-1c0.3,0,0.7,0,1.3,0l0.6,0v2.8
			c-0.4,0-0.7-0.1-1.1-0.1c-0.5,0-0.9,0.1-1.1,0.2c-0.2,0.1-0.3,0.5-0.3,1v0.5h2.4v2.5H295v9.5h-3.9V103.4z"/>
		<path class="st0" d="M298.7,104.4c0.3-0.8,0.7-1.5,1.3-2c0.6-0.6,1.2-1,2-1.3c0.8-0.3,1.6-0.5,2.5-0.5c0.9,0,1.8,0.2,2.5,0.5
			c0.8,0.3,1.5,0.8,2,1.3c0.6,0.6,1,1.3,1.3,2c0.3,0.8,0.5,1.6,0.5,2.5c0,0.9-0.2,1.7-0.5,2.5c-0.3,0.8-0.7,1.4-1.3,2
			c-0.6,0.6-1.2,1-2,1.3c-0.8,0.3-1.6,0.5-2.5,0.5c-0.9,0-1.8-0.2-2.5-0.5c-0.8-0.3-1.4-0.8-2-1.3c-0.6-0.6-1-1.3-1.3-2
			c-0.3-0.8-0.5-1.6-0.5-2.5C298.2,106,298.3,105.1,298.7,104.4z M302.2,108.1c0.1,0.4,0.2,0.7,0.4,1.1s0.4,0.6,0.7,0.8
			c0.3,0.2,0.7,0.3,1.1,0.3c0.4,0,0.8-0.1,1.1-0.3c0.3-0.2,0.6-0.5,0.8-0.8s0.3-0.7,0.4-1.1c0.1-0.4,0.1-0.8,0.1-1.2s0-0.8-0.1-1.2
			c-0.1-0.4-0.2-0.8-0.4-1.1c-0.2-0.3-0.4-0.6-0.8-0.8c-0.3-0.2-0.7-0.3-1.1-0.3c-0.4,0-0.8,0.1-1.1,0.3c-0.3,0.2-0.6,0.5-0.7,0.8
			c-0.2,0.3-0.3,0.7-0.4,1.1c-0.1,0.4-0.1,0.8-0.1,1.2C302.1,107.3,302.2,107.7,302.2,108.1z"/>
		<path class="st0" d="M313,100.9h3.8v2.1h0c0.3-0.8,0.8-1.3,1.4-1.7s1.4-0.6,2.2-0.6c0.4,0,0.7,0,0.9,0.1v3.6
			c-0.6-0.2-1.1-0.2-1.5-0.2c-0.9,0-1.6,0.3-2.2,0.8c-0.5,0.5-0.8,1.2-0.8,2v5.9H313V100.9z"/>
		<path class="st0" d="M330,96.3h3.9v5.8h0c0.8-1.1,2-1.7,3.4-1.7c0.8,0,1.5,0.2,2.2,0.5c0.6,0.3,1.2,0.8,1.6,1.4
			c0.4,0.6,0.8,1.2,1,2c0.2,0.7,0.3,1.5,0.3,2.3c0,0.9-0.1,1.7-0.3,2.5c-0.2,0.8-0.5,1.5-1,2.1c-0.4,0.6-1,1.1-1.7,1.5
			c-0.7,0.4-1.5,0.5-2.4,0.5c-1.4,0-2.5-0.6-3.3-1.7h0v1.4H330V96.3z M335.4,103.7c-0.3,0.1-0.5,0.3-0.8,0.5c-0.2,0.2-0.4,0.6-0.6,1
			c-0.1,0.4-0.2,0.9-0.2,1.5c0,1.1,0.2,2,0.6,2.6c0.4,0.6,1,0.9,1.8,0.9c0.4,0,0.8-0.1,1.1-0.3c0.3-0.2,0.6-0.5,0.7-0.8
			c0.2-0.3,0.3-0.7,0.4-1.1c0.1-0.4,0.1-0.8,0.1-1.3c0-0.4,0-0.8-0.1-1.2c-0.1-0.4-0.2-0.7-0.4-1c-0.2-0.3-0.4-0.6-0.7-0.7
			s-0.7-0.3-1.1-0.3C335.9,103.5,335.6,103.6,335.4,103.7z"/>
		<path class="st0" d="M356.5,112.9h-3.8v-1.6h0c-0.4,0.6-0.9,1.1-1.6,1.4c-0.7,0.4-1.4,0.5-2.1,0.5c-1.6,0-2.8-0.4-3.4-1.3
			c-0.7-0.9-1-2.1-1-3.8v-7.2h3.9v7c0,0.8,0.2,1.3,0.5,1.7c0.3,0.3,0.8,0.5,1.5,0.5c0.2,0,0.5,0,0.7-0.1s0.5-0.2,0.7-0.4
			c0.2-0.2,0.4-0.5,0.5-0.8c0.1-0.4,0.2-0.8,0.2-1.3v-6.4h3.9V112.9z"/>
		<path class="st0" d="M362.2,108.9c0,0.6,0.2,1,0.6,1.3c0.4,0.3,0.9,0.4,1.5,0.4c0.5,0,0.9-0.1,1.3-0.3c0.4-0.2,0.6-0.5,0.6-1
			c0-0.4-0.2-0.6-0.5-0.8c-0.3-0.2-0.7-0.3-1.3-0.4c-0.1,0-0.1,0-0.2,0c-0.2-0.1-0.6-0.1-1.2-0.3c-0.7-0.2-1.3-0.3-1.8-0.4
			c-0.5-0.1-0.9-0.3-1.3-0.6c-0.4-0.3-0.7-0.6-1-1c-0.2-0.4-0.4-1-0.4-1.6c0-0.7,0.2-1.3,0.5-1.7c0.3-0.5,0.8-0.9,1.3-1.1
			c0.5-0.3,1.1-0.5,1.8-0.6c0.6-0.1,1.3-0.2,1.9-0.2c0.7,0,1.4,0.1,2,0.2c0.6,0.1,1.2,0.3,1.7,0.6c0.5,0.3,0.9,0.7,1.3,1.2
			c0.3,0.5,0.5,1.1,0.5,1.9H366c0-0.5-0.2-0.8-0.5-1c-0.3-0.2-0.7-0.3-1.2-0.3c-0.5,0-0.9,0.1-1.2,0.2c-0.3,0.1-0.5,0.4-0.5,0.7
			c0,0.2,0.1,0.4,0.3,0.6c0.2,0.2,0.4,0.3,0.7,0.4c0.3,0.1,0.6,0.2,1,0.3c0.4,0.1,0.8,0.2,1.3,0.3c0.5,0.1,0.9,0.1,1.1,0.2
			c0.6,0.1,1.1,0.3,1.5,0.5c0.4,0.3,0.7,0.5,0.9,0.8s0.4,0.6,0.5,0.9c0.1,0.3,0.1,0.6,0.1,0.9c0,0.8-0.2,1.4-0.5,2
			c-0.3,0.6-0.8,1-1.3,1.3c-0.5,0.3-1.2,0.6-1.8,0.7c-0.7,0.2-1.4,0.2-2.1,0.2c-0.8,0-1.5-0.1-2.2-0.2c-0.7-0.1-1.3-0.4-1.8-0.7
			c-0.6-0.3-1-0.8-1.3-1.3c-0.3-0.6-0.5-1.2-0.5-2H362.2z"/>
		<path class="st0" d="M376.1,99.4h-3.9v-3h3.9V99.4z M372.1,100.9h3.9v12h-3.9V100.9z"/>
		<path class="st0" d="M378.8,100.9h3.8v1.6h0c0.4-0.6,0.9-1.1,1.6-1.4c0.7-0.4,1.4-0.5,2.2-0.5c0.9,0,1.7,0.2,2.3,0.5
			c0.6,0.3,1,0.7,1.3,1.2c0.3,0.5,0.5,1,0.6,1.5c0.1,0.5,0.1,1,0.1,1.6v7.7h-3.9v-5.8c0-1.2-0.1-2.1-0.3-2.6
			c-0.2-0.5-0.8-0.8-1.6-0.8c-0.7,0-1.2,0.2-1.6,0.7c-0.4,0.5-0.5,1.1-0.5,1.8v6.5h-3.9V100.9z"/>
		<path class="st0" d="M396.8,107.8c0,0.8,0.3,1.5,0.8,2c0.5,0.5,1.1,0.7,1.9,0.7c0.5,0,0.9-0.1,1.4-0.3c0.4-0.2,0.7-0.6,0.9-1h3.7
			c-0.3,1.3-1.1,2.3-2.2,3c-1.1,0.7-2.4,1-3.8,1c-2,0-3.6-0.6-4.8-1.7c-1.2-1.1-1.8-2.7-1.8-4.7c0-0.9,0.2-1.7,0.5-2.5
			c0.3-0.8,0.8-1.4,1.4-2c0.6-0.6,1.3-1,2.1-1.3c0.8-0.3,1.6-0.5,2.5-0.5c1,0,1.9,0.2,2.7,0.5c0.8,0.3,1.5,0.8,2,1.4
			c0.5,0.6,0.9,1.3,1.2,2.2c0.3,0.8,0.4,1.7,0.4,2.7c0,0.1,0,0.1,0,0.2v0.3H396.8z M401.6,105.6c0-0.7-0.3-1.3-0.7-1.7
			c-0.4-0.5-1-0.7-1.6-0.7c-0.7,0-1.2,0.2-1.7,0.7c-0.4,0.4-0.7,1-0.9,1.8H401.6z"/>
		<path class="st0" d="M410.6,108.9c0,0.6,0.2,1,0.6,1.3c0.4,0.3,0.9,0.4,1.5,0.4c0.5,0,0.9-0.1,1.3-0.3c0.4-0.2,0.6-0.5,0.6-1
			c0-0.4-0.2-0.6-0.5-0.8c-0.3-0.2-0.7-0.3-1.3-0.4c-0.1,0-0.1,0-0.2,0c-0.2-0.1-0.6-0.1-1.2-0.3c-0.7-0.2-1.3-0.3-1.8-0.4
			c-0.5-0.1-0.9-0.3-1.3-0.6c-0.4-0.3-0.7-0.6-1-1c-0.2-0.4-0.4-1-0.4-1.6c0-0.7,0.2-1.3,0.5-1.7c0.3-0.5,0.8-0.9,1.3-1.1
			c0.5-0.3,1.1-0.5,1.8-0.6c0.6-0.1,1.3-0.2,1.9-0.2c0.7,0,1.4,0.1,2,0.2c0.6,0.1,1.2,0.3,1.7,0.6c0.5,0.3,0.9,0.7,1.3,1.2
			c0.3,0.5,0.5,1.1,0.5,1.9h-3.6c0-0.5-0.2-0.8-0.5-1c-0.3-0.2-0.7-0.3-1.2-0.3c-0.5,0-0.9,0.1-1.2,0.2c-0.3,0.1-0.5,0.4-0.5,0.7
			c0,0.2,0.1,0.4,0.3,0.6c0.2,0.2,0.4,0.3,0.7,0.4c0.3,0.1,0.6,0.2,1,0.3c0.4,0.1,0.8,0.2,1.3,0.3c0.5,0.1,0.9,0.1,1.1,0.2
			c0.6,0.1,1.1,0.3,1.5,0.5c0.4,0.3,0.7,0.5,0.9,0.8s0.4,0.6,0.5,0.9c0.1,0.3,0.1,0.6,0.1,0.9c0,0.8-0.2,1.4-0.5,2
			c-0.3,0.6-0.8,1-1.3,1.3c-0.5,0.3-1.2,0.6-1.8,0.7c-0.7,0.2-1.4,0.2-2.1,0.2c-0.8,0-1.5-0.1-2.2-0.2c-0.7-0.1-1.3-0.4-1.8-0.7
			c-0.6-0.3-1-0.8-1.3-1.3c-0.3-0.6-0.5-1.2-0.5-2H410.6z"/>
		<path class="st0" d="M423.4,108.9c0,0.6,0.2,1,0.6,1.3c0.4,0.3,0.9,0.4,1.5,0.4c0.5,0,0.9-0.1,1.3-0.3c0.4-0.2,0.6-0.5,0.6-1
			c0-0.4-0.2-0.6-0.5-0.8c-0.3-0.2-0.7-0.3-1.3-0.4c-0.1,0-0.1,0-0.2,0c-0.2-0.1-0.6-0.1-1.2-0.3c-0.7-0.2-1.3-0.3-1.8-0.4
			c-0.5-0.1-0.9-0.3-1.3-0.6c-0.4-0.3-0.7-0.6-1-1c-0.2-0.4-0.4-1-0.4-1.6c0-0.7,0.2-1.3,0.5-1.7c0.3-0.5,0.8-0.9,1.3-1.1
			c0.5-0.3,1.1-0.5,1.8-0.6c0.6-0.1,1.3-0.2,1.9-0.2c0.7,0,1.4,0.1,2,0.2c0.6,0.1,1.2,0.3,1.7,0.6c0.5,0.3,0.9,0.7,1.3,1.2
			c0.3,0.5,0.5,1.1,0.5,1.9h-3.6c0-0.5-0.2-0.8-0.5-1c-0.3-0.2-0.7-0.3-1.2-0.3c-0.5,0-0.9,0.1-1.2,0.2c-0.3,0.1-0.5,0.4-0.5,0.7
			c0,0.2,0.1,0.4,0.3,0.6c0.2,0.2,0.4,0.3,0.7,0.4c0.3,0.1,0.6,0.2,1,0.3c0.4,0.1,0.8,0.2,1.3,0.3c0.5,0.1,0.9,0.1,1.1,0.2
			c0.6,0.1,1.1,0.3,1.5,0.5c0.4,0.3,0.7,0.5,0.9,0.8c0.2,0.3,0.4,0.6,0.5,0.9c0.1,0.3,0.1,0.6,0.1,0.9c0,0.8-0.2,1.4-0.5,2
			c-0.3,0.6-0.8,1-1.3,1.3c-0.5,0.3-1.2,0.6-1.8,0.7c-0.7,0.2-1.4,0.2-2.1,0.2c-0.8,0-1.5-0.1-2.2-0.2c-0.7-0.1-1.3-0.4-1.8-0.7
			c-0.6-0.3-1-0.8-1.3-1.3c-0.3-0.6-0.5-1.2-0.5-2H423.4z"/>
	</g>
	<path class="st0" d="M0,0.1h60c8.5,0,16.3,2.2,23.3,6.7c6.6,4.3,11.8,10,15.4,17.1c3.2,6.3,4.8,12.8,4.8,19.6c0,1,0,1.9-0.1,2.9
		c-0.5,8.4-3.4,16.1-8.6,23.1c5.2,7,8.1,14.6,8.6,23c0.1,1,0.1,1.9,0.1,2.9c0,6.8-1.6,13.4-4.7,19.8c-3.6,7.2-8.7,12.9-15.3,17.1
		c-7,4.6-14.9,6.9-23.5,6.9h-30L0,139.1V52.4h12.7L0,30V0.1z M38.1,52.1c0.9,0,2.1,0,3.5-0.1h4c1.8-0.1,3.4-0.1,4.8-0.1
		c1.5,0,2.8,0,3.9,0.1c7.1,0.1,12.2,0.5,15.4,1.2c2.1-2,3.3-4.4,3.8-7.2c0.1-0.8,0.2-1.5,0.2-2.3c0-1.7-0.4-3.5-1.1-5.2
		C70.2,32.9,66,30,60,30H25.8L38.1,52.1z M44.5,109.3l-14.5-26v26H44.5z M54.8,82.1l13.6,24.2c2.5-1.9,4-4.3,4.7-7.2
		c0.3-1.1,0.5-2.2,0.5-3.4c0-1.5-0.3-3-0.9-4.6c-0.9-2.6-2.5-4.8-4.6-6.5c-2.3-1.7-5-2.6-8.1-2.6H54.8z"/>
	<g>
		<polygon class="st0" points="118.8,139.4 209,139 208.8,110.2 118.7,110.6 		"/>
		<polygon class="st0" points="148.4,64.1 148.3,54.2 148.2,40.5 148.2,30.2 208.4,29.9 208.3,0 118.1,0.4 118.6,94.7 172.8,94.2 
			172.6,64.3 148.4,64.6 		"/>
	</g>
	<g>
		<rect x="251" y="94.7" class="st0" width="29.7" height="44.5"/>
		<polygon class="st0" points="219.3,0.1 219.3,30.1 250.7,30.1 251,30.1 251,64.3 280.6,64.3 280.6,30.1 280.7,30.1 312.2,30.1 
			312.2,0.1 		"/>
	</g>
</g>
</svg>
